<svg width="35" height="30" viewBox="0 0 35 30" fill="none" xmlns="http://www.w3.org/2000/svg">
<path d="M29.381 11.9031C28.5608 9.8546 27.24 8.0659 25.5502 6.71525C23.8603 5.36465 21.8604 4.49928 19.7498 4.20544C17.6392 3.91159 15.4916 4.19952 13.521 5.04055C11.5503 5.88155 9.82556 7.24625 8.51849 8.99865C7.21143 10.751 6.36773 12.8299 6.07149 15.0282C5.77521 17.2264 6.03676 19.4672 6.83004 21.5272C7.62332 23.5872 8.92063 25.3946 10.5927 26.7691C12.2647 28.1436 14.2531 29.0373 16.3596 29.3611C16.0837 28.3245 15.803 27.1789 15.5557 25.9637C16.2753 26.4504 17.0328 26.8735 17.8202 27.2285C17.8202 27.2285 17.8773 28.2997 17.9534 29.495C18.8042 29.5103 19.6541 29.4322 20.4892 29.2619C20.4676 29.1373 20.4676 29.0096 20.4892 28.885C20.6272 27.9575 21.0077 26.2861 21.0839 25.2099C21.6326 24.6749 22.098 24.0541 22.4636 23.3698L22.435 23.5881C22.1733 25.7009 21.6262 27.9575 21.2932 28.5824C21.1854 28.7893 21.0527 28.981 20.8983 29.1528C22.6205 28.7316 24.2341 27.9251 25.6274 26.789C27.0208 25.6529 28.1604 24.2146 28.9673 22.5736C29.7743 20.9326 30.2293 19.1284 30.3007 17.2858C30.3721 15.4433 30.0583 13.6066 29.381 11.9031ZM28.6816 13.7828C28.4723 13.9961 28.0394 14.1399 27.968 13.4952C27.8966 12.8504 27.8776 12.3991 27.8776 12.3991C27.8776 12.3991 26.9594 10.6979 26.6169 10.6781C26.2743 10.6583 23.8432 12.3991 23.2009 13.1579C22.6443 13.7977 22.5349 13.7531 22.5349 14.8789C22.5349 15.727 22.6396 18.931 22.5825 21.381L18.7051 22.4573C17.4864 22.8219 16.247 23.1068 14.9942 23.3103L14.5185 20.4189H14.4519L13.2292 13.887C13.2292 13.887 11.4166 13.1728 10.7506 12.9794C10.4378 12.8367 10.0924 12.7904 9.75524 12.8457C9.41805 12.9011 9.10307 13.0559 8.84756 13.2918C8.58681 13.5298 8.37839 13.8235 8.23634 14.153C8.09433 14.4825 8.02207 14.8401 8.0245 15.2013C8.12507 15.4318 8.20161 15.6729 8.25285 15.9205C8.27663 16.1585 7.68192 16.1337 7.30134 16.1337C6.92076 16.1337 6.86367 15.4195 7.16338 14.5813C7.3972 13.9368 7.68702 13.316 8.02925 12.7264C8.28662 12.1998 8.61863 11.7166 9.01406 11.2931C9.01406 11.2931 9.08066 11.1245 9.60872 11.1741C10.1368 11.2237 13.0722 11.3873 13.0722 11.3873L13.096 10.2615C16.2866 9.80225 19.5044 9.58015 22.7252 9.5969C22.7252 9.89945 22.7252 10.202 22.7252 10.5045C23.9452 9.92415 25.2588 9.5877 26.5978 9.5126C26.6695 9.5107 26.7405 9.5274 26.8044 9.56115C26.8683 9.5949 26.9232 9.6447 26.9641 9.70605C27.1259 9.9193 28.1107 11.1939 28.2249 11.3774C28.5447 11.8539 28.8355 12.3508 29.0955 12.8653C29.0064 13.1911 28.8666 13.4994 28.6816 13.7779V13.7828Z" fill="#FDC305"/>
<path d="M27.7541 10.7475C27.9778 11.0451 28.1728 11.308 28.2299 11.3873C28.5497 11.8638 28.8405 12.3607 29.1005 12.8752C29.01 13.1903 28.8719 13.4883 28.6914 13.758C28.482 13.9713 28.0491 14.1151 27.9778 13.4704C27.9064 12.8256 27.8779 12.3991 27.8779 12.3991C27.8779 12.3991 26.9597 10.6979 26.6171 10.6781C26.2746 10.6583 23.8435 12.3991 23.2012 13.1579C22.6446 13.7977 22.5352 13.7531 22.5352 14.8789C22.5352 15.6229 22.616 18.1771 22.597 20.4486C23.4581 20.5478 24.7236 20.7958 25.1042 21.381C25.1042 21.381 24.9663 17.82 28.8199 19.6848C28.8199 19.6848 28.9531 14.8293 34.2719 16.0742C32.4638 13.8611 30.2473 12.0497 27.7541 10.7475Z" fill="#F06351"/>
<path d="M22.7445 9.59689C22.7638 6.84864 22.5409 4.10434 22.0784 1.39861C22.0784 1.39861 22.007 0.753858 21.6645 1.27958C21.3818 1.90808 21.1895 2.57653 21.0936 3.26344C19.0599 3.12741 17.0185 3.18385 14.9945 3.43207C14.6043 2.06817 13.9383 1.44821 13.6195 1.61188C13.3008 1.77555 13.2627 3.23864 13.2627 3.23864L13.1057 10.2615C16.2994 9.80179 19.5205 9.57969 22.7445 9.59689Z" fill="#F06351"/>
<path d="M22.4682 23.3698C22.53 22.8392 22.5633 22.1349 22.5823 21.3562L18.7052 22.4325C17.487 22.8055 16.2477 23.0987 14.9945 23.3103L15.5225 25.7902C15.5225 25.8447 15.5225 25.8993 15.5558 25.9538C16.2755 26.4405 17.033 26.8636 17.8203 27.2185C18.9709 26.6451 20.0668 25.9593 21.0933 25.1702V25.2C21.6395 24.6676 22.1033 24.0502 22.4682 23.3698Z" fill="#E55645"/>
<path d="M16.1172 8.04454C16.0935 7.99494 16.593 8.38179 16.788 8.50084C16.9831 8.61984 17.0782 8.70914 17.0782 8.79344C17.0782 8.87779 16.9545 8.96209 16.7833 8.96209C16.612 8.96209 16.3456 8.90254 16.3075 8.83314C16.2695 8.76369 16.593 8.83314 16.7547 8.83314H16.8927C16.5998 8.60974 16.3387 8.34424 16.1172 8.04454Z" fill="black"/>
<path d="M19.6854 8.0991C19.6854 8.0991 19.2097 8.73395 19.1668 8.7637C19.124 8.79345 19.0859 8.93235 19.2572 8.90755C19.4538 8.87695 19.6479 8.8305 19.8376 8.76865C19.8899 8.7389 19.8709 8.66946 19.7805 8.67941C19.6902 8.68931 19.457 8.7042 19.3048 8.73395L19.7091 8.10405C19.7091 8.10405 19.7234 8.04455 19.6854 8.0991Z" fill="black"/>
<path d="M18.1915 11.1295C18.412 11.0282 18.5943 10.8539 18.71 10.6335C18.8432 10.3062 18.71 10.1822 18.5007 10.1375C18.2127 10.0828 17.9155 10.143 17.6682 10.3062C17.4826 10.4897 17.5064 10.6682 17.6682 10.8021C17.8289 10.9335 18.0047 11.0435 18.1915 11.1295Z" fill="black"/>
<path d="M18.0202 11.7544C17.9656 11.8669 17.8913 11.9678 17.8013 12.052C17.6658 12.1656 17.4993 12.2316 17.3256 12.2404C17.0637 12.2672 16.8018 12.1892 16.593 12.0222C16.4971 11.9637 16.4117 11.8882 16.3408 11.799C16.2932 11.745 16.2348 11.7027 16.1696 11.675C16.1696 11.675 16.5264 13.7135 17.3922 14.0408C18.258 14.3681 18.4198 13.6639 18.4436 13.4754C18.4725 12.9109 18.3365 12.3506 18.0535 11.8685C18.0535 11.7197 18.044 11.8189 18.0202 11.7544Z" fill="#F06351"/>
<path d="M17.2114 12.3197C16.9887 12.2864 16.7749 12.2063 16.5828 12.0844C16.3907 11.9625 16.2242 11.8013 16.0934 11.6105C16.0817 11.5969 16.0753 11.5792 16.0753 11.5609C16.0753 11.5426 16.0817 11.525 16.0934 11.5113C16.0997 11.5047 16.107 11.4995 16.1152 11.4959C16.1234 11.4923 16.1322 11.4905 16.141 11.4905C16.1499 11.4905 16.1587 11.4923 16.1668 11.4959C16.175 11.4995 16.1824 11.5047 16.1886 11.5113C16.3063 11.6835 16.4556 11.8296 16.628 11.9411C16.8003 12.0527 16.9921 12.1274 17.1924 12.161C17.3508 12.1486 17.5041 12.0972 17.6397 12.011C17.7754 11.9248 17.8894 11.8062 17.9726 11.6651L18.0392 11.5708L18.0867 11.68C18.0867 11.68 18.2675 12.0569 18.5625 12.0767C18.8574 12.0966 19.0667 11.8684 19.3379 11.4369C19.348 11.4211 19.3637 11.4102 19.3815 11.4065C19.3994 11.4027 19.4179 11.4066 19.433 11.4171C19.4482 11.4276 19.4587 11.444 19.4622 11.4626C19.4658 11.4812 19.4622 11.5005 19.4521 11.5163C19.1349 12.0023 18.8352 12.2354 18.5529 12.2156C18.4439 12.2005 18.3394 12.1602 18.2472 12.0975C18.155 12.0349 18.0774 11.9515 18.0201 11.8535C17.9271 11.989 17.8062 12.1012 17.6663 12.1819C17.5264 12.2625 17.3709 12.3096 17.2114 12.3197Z" fill="black"/>
<path d="M18.1438 18.9954C19.1291 18.9954 19.9278 18.1627 19.9278 17.1356C19.9278 16.1084 19.1291 15.2757 18.1438 15.2757C17.1586 15.2757 16.3599 16.1084 16.3599 17.1356C16.3599 18.1627 17.1586 18.9954 18.1438 18.9954Z" fill="#FDC305"/>
<path d="M20.5082 15.6229L19.0192 16.2726L19.5663 13.4803L15.9983 18.3209L17.4874 17.6712L16.9403 20.4685L20.5082 15.6229ZM16.9926 17.5224L18.9716 14.8393L18.5863 16.8231L19.5377 16.4164L17.5444 19.1046L17.9298 17.1207L16.9926 17.5224Z" fill="#111111"/>
<path d="M16.3265 16.7934C16.6208 16.7934 16.8593 16.5447 16.8593 16.2379C16.8593 15.9311 16.6208 15.6824 16.3265 15.6824C16.0323 15.6824 15.7937 15.9311 15.7937 16.2379C15.7937 16.5447 16.0323 16.7934 16.3265 16.7934Z" fill="#111111"/>
<path d="M19.4285 18.807C19.636 18.807 19.8043 18.6315 19.8043 18.4152C19.8043 18.1988 19.636 18.0233 19.4285 18.0233C19.2209 18.0233 19.0526 18.1988 19.0526 18.4152C19.0526 18.6315 19.2209 18.807 19.4285 18.807Z" fill="#111111"/>
<path d="M19.8852 17.7308C19.9771 17.7308 20.0517 17.6531 20.0517 17.5572C20.0517 17.4613 19.9771 17.3836 19.8852 17.3836C19.7932 17.3836 19.7187 17.4613 19.7187 17.5572C19.7187 17.6531 19.7932 17.7308 19.8852 17.7308Z" fill="#111111"/>
<path d="M22.7207 10.4946C21.8619 11.3017 21.053 12.1648 20.2991 13.0786C19.5481 13.9859 18.7006 14.8012 17.7728 15.5089C17.6682 15.246 16.9974 14.755 16.9974 14.755C16.9974 14.755 15.5035 13.6887 14.5235 12.8505C13.9937 12.3905 13.4946 11.8934 13.0296 11.3626L12.0781 11.308C13.4516 13.3996 15.4638 14.9449 17.7871 15.6924C18.1962 15.6229 19.3476 14.7649 20.2087 14.0656C21.2274 13.1624 22.1815 12.1827 23.0632 11.1344C23.3002 10.8408 23.484 10.5047 23.6056 10.1425C23.0632 10.331 22.7207 10.4946 22.7207 10.4946Z" fill="#F06351"/>
<path d="M31.9215 1.73588L27.8968 6.4178L27.3164 5.4308L31.1936 0L31.9215 1.73588Z" fill="#FDC305"/>
<path d="M30.699 8.56034L33.3346 6.52194L32.9635 4.66702L30.3946 7.05259L30.699 8.56034Z" fill="#FDC305"/>
<path d="M29.4002 24.4858L32.3165 26.0629L33.7484 24.9024L30.5658 23.5385L29.4002 24.4858Z" fill="#FDC305"/>
<path d="M1.82086 2.9609L3.28135 1.29446L7.70086 5.75814L7.12047 6.88894L1.82086 2.9609Z" fill="#FDC305"/>
<path d="M4.40407 8.07429L2.16815 6.52194L1.0264 8.44129L3.4764 9.63164L4.40407 8.07429Z" fill="#FDC305"/>
<path d="M7.51057 26.063L5.34601 27.7245L6.67805 29.5L8.59047 27.5062L7.51057 26.063Z" fill="#FDC305"/>
<path d="M13.2294 13.887C13.2294 13.887 11.4168 13.1729 10.7508 12.9794C10.438 12.8368 10.0927 12.7904 9.75548 12.8458C9.41828 12.9012 9.1033 13.0559 8.84774 13.2919C8.58704 13.5299 8.37858 13.8236 8.23658 14.1531C8.09452 14.4826 8.02226 14.8401 8.02469 15.2014C8.12526 15.4319 8.20185 15.673 8.25308 15.9205C8.27687 16.1586 7.68216 16.1338 7.30158 16.1338C6.92095 16.1338 6.86386 15.4196 7.16362 14.5814C7.39744 13.9369 7.68725 13.316 8.02944 12.7265C5.43663 14.135 0.893188 17.3886 0.893188 17.3886C2.19278 17.3069 3.4968 17.3467 4.78959 17.5076C7.28731 17.7705 7.16838 19.8237 7.16838 19.8237C8.04686 19.5713 8.94213 19.3873 9.84682 19.2732C10.8554 19.2038 10.9268 20.3247 10.9268 20.3247L11.179 22.2391C11.5618 21.8073 11.984 21.4153 12.4397 21.0686C13.027 20.5785 13.7748 20.3471 14.5235 20.4239L13.2294 13.887Z" fill="#F06351"/>
</svg>
