<svg width="191" height="55" viewBox="0 0 191 55" fill="none" xmlns="http://www.w3.org/2000/svg">
<g clip-path="url(#clip0_1_2)">
<path d="M1368 -45H-72V104H1368V-45Z" fill="#F2F2F2"/>
<path d="M39.603 40.0513C38.468 38.3682 37.905 36.3503 38 34.3077V25.7949C37.863 23.7303 38.39 21.6766 39.502 19.9487C40.604 18.6154 42.307 18 44.811 18C47.315 18 48.917 18.6154 49.919 19.7436C51.006 21.1725 51.541 22.9618 51.421 24.7692V26.8205H46.513V24.4615C46.553 23.7638 46.451 23.0653 46.213 22.4103C46.086 22.1458 45.884 21.9264 45.634 21.7802C45.385 21.634 45.098 21.5676 44.811 21.5897C44.11 21.5897 43.609 21.7949 43.408 22.3077C43.182 23.0364 43.08 23.7998 43.108 24.5641V35.5385C43.055 36.2799 43.193 37.0227 43.509 37.6923C43.709 38.2051 44.21 38.4103 44.911 38.4103C45.612 38.4103 46.013 38.2051 46.213 37.6923C46.441 36.9992 46.542 36.2692 46.513 35.5385V33.0769H51.421V35.1282C51.523 36.9651 50.991 38.7803 49.919 40.2564C48.917 41.4872 47.214 42.1026 44.811 42.1026C42.407 42 40.604 41.3846 39.603 40.0513Z" fill="#111111"/>
<path d="M57.33 18.3076H63.039L67.246 41.6922H62.638L61.837 36.7692H58.532L57.731 41.6922H53.023L57.33 18.3076ZM61.437 33.6922L60.235 24.564L59.033 33.6922H61.437Z" fill="#111111"/>
<path d="M70.751 22.2051H67.346V18.3076H79.264V22.1025H75.859V41.6922H70.751V22.2051Z" fill="#111111"/>
<path d="M88.379 18.3076H97.192V20.7692H91.484V28.4615H96.091V30.8204H91.484V39.4358H97.192V41.7948H88.279V18.3076H88.379Z" fill="#111111"/>
<path d="M99.797 18.3076H102L108.51 33.7948V18.3076H111.114V41.6922H109.111L102.501 25.6922V41.6922H99.797V18.3076Z" fill="#111111"/>
<path d="M114.119 18.3076H122.933V20.7692H117.224V28.4615H121.831V30.8204H117.224V39.4358H122.933V41.7948H114.119V18.3076Z" fill="#111111"/>
<path d="M125.537 18.3076H130.144C131.956 18.1794 133.758 18.6857 135.252 19.7435C136.354 20.6666 136.854 22.3076 136.854 24.4614C136.854 27.4358 135.953 29.282 134.05 29.8973L137.255 41.5897H134.15L131.146 30.6153H128.642V41.5897H125.437V18.3076H125.537ZM129.944 28.3589C130.976 28.446 132.005 28.1553 132.848 27.5384C133.449 27.0255 133.75 25.9999 133.75 24.4614C133.777 23.6972 133.676 22.9338 133.449 22.205C133.224 21.6821 132.837 21.2496 132.347 20.9743C131.658 20.6524 130.9 20.5114 130.144 20.564H128.742V28.2563H129.944V28.3589Z" fill="#111111"/>
<path d="M140.861 39.9487C139.82 38.1554 139.331 36.0821 139.458 33.9999V26.2051C139.434 24.7188 139.602 23.2357 139.959 21.7948C140.294 20.7181 140.962 19.7822 141.862 19.1281C142.981 18.4503 144.271 18.1289 145.568 18.2051C147.671 18.2051 149.174 18.7179 150.075 19.8461C151.112 21.3358 151.608 23.1498 151.477 24.9743V25.7948H148.473V25.0769C148.477 24.2179 148.41 23.3601 148.272 22.5128C148.188 21.9773 147.9 21.4979 147.471 21.1794C146.908 20.801 146.24 20.621 145.568 20.6666C144.85 20.6195 144.139 20.8379 143.565 21.282C143.329 21.4853 143.137 21.7357 142.999 22.0179C142.861 22.3 142.781 22.608 142.764 22.923C142.632 23.8399 142.565 24.7654 142.563 25.6922V34.4102C142.49 35.7384 142.694 37.0674 143.164 38.3076C143.565 39.1281 144.366 39.4358 145.568 39.4358C146.043 39.4964 146.524 39.4119 146.952 39.1929C147.379 38.9739 147.734 38.6302 147.972 38.2051C148.501 36.9081 148.741 35.5064 148.673 34.1025V32.4615H145.768V30.1025H151.577V41.6923H149.574L149.274 39.0256C149.011 39.9193 148.464 40.6975 147.72 41.2364C146.976 41.7753 146.078 42.0441 145.167 41.9999C144.34 42.0498 143.513 41.8885 142.761 41.5304C142.01 41.1724 141.357 40.6289 140.861 39.9487Z" fill="#111111"/>
<path d="M157.988 33.4871L153.08 18.4102H156.085L159.59 29.6922L162.995 18.4102H166L161.092 33.4871V41.6922H158.088V33.4871H157.988Z" fill="#111111"/>
</g>
<defs>
<clipPath id="clip0_1_2">
<rect width="1440" height="149" fill="white" transform="translate(-72 -45)"/>
</clipPath>
</defs>
</svg>
