<svg width="196" height="52" viewBox="0 0 196 52" fill="none" xmlns="http://www.w3.org/2000/svg">
<path d="M74.2814 33.5385C73.3865 32.2762 72.9422 30.7627 73.0169 29.2308V22.8462C72.9085 21.2977 73.325 19.7575 74.2024 18.4615C75.0717 17.4615 76.4152 17 78.3909 17C80.3667 17 81.6312 17.4615 82.4214 18.3077C83.2795 19.3794 83.7015 20.7214 83.6069 22.0769V23.6154H79.7344V21.8462C79.7657 21.3229 79.685 20.799 79.4973 20.3077C79.3971 20.1094 79.2381 19.9448 79.0409 19.8351C78.8438 19.7255 78.6174 19.6757 78.3909 19.6923C77.8377 19.6923 77.4426 19.8462 77.2845 20.2308C77.1057 20.7773 77.0255 21.3499 77.0474 21.9231V30.1538C77.0057 30.71 77.1147 31.267 77.3635 31.7692C77.5216 32.1538 77.9168 32.3077 78.47 32.3077C79.0232 32.3077 79.3393 32.1538 79.4973 31.7692C79.677 31.2494 79.7574 30.7019 79.7344 30.1538V28.3077H83.6069V29.8462C83.6873 31.2238 83.2677 32.5852 82.4214 33.6923C81.6312 34.6154 80.2876 35.0769 78.3909 35.0769C76.4942 35 75.0717 34.5385 74.2814 33.5385Z" fill="#111111"/>
<path d="M88.2696 17.2308H92.7743L96.0936 34.7692H92.4582L91.826 31.0769H89.218L88.5858 34.7692H84.8714L88.2696 17.2308ZM91.5099 28.7692L90.5615 21.9231L89.6132 28.7692H91.5099Z" fill="#111111"/>
<path d="M98.8595 20.1538H96.1725V17.2308H105.577V20.0769H102.89V34.7692H98.8595V20.1538Z" fill="#111111"/>
<path d="M112.769 17.2308H119.723V19.0769H115.219V24.8462H118.854V26.6154H115.219V33.0769H119.723V34.8462H112.69V17.2308H112.769Z" fill="#111111"/>
<path d="M121.778 17.2308H123.517L128.654 28.8462V17.2308H130.709V34.7692H129.128L123.912 22.7692V34.7692H121.778V17.2308Z" fill="#111111"/>
<path d="M133.08 17.2308H140.034V19.0769H135.53V24.8462H139.165V26.6154H135.53V33.0769H140.034V34.8462H133.08V17.2308Z" fill="#111111"/>
<path d="M142.089 17.2308H145.724C147.154 17.1346 148.576 17.5144 149.755 18.3077C150.624 19 151.019 20.2308 151.019 21.8462C151.019 24.0769 150.308 25.4615 148.807 25.9231L151.335 34.6923H148.886L146.515 26.4615H144.539V34.6923H142.01V17.2308H142.089ZM145.566 24.7692C146.381 24.8346 147.193 24.6165 147.858 24.1538C148.332 23.7692 148.569 23 148.569 21.8462C148.591 21.273 148.511 20.7004 148.332 20.1538C148.154 19.7617 147.849 19.4373 147.463 19.2308C146.919 18.9893 146.321 18.8836 145.724 18.9231H144.618V24.6923H145.566V24.7692Z" fill="#111111"/>
<path d="M154.181 33.4615C153.359 32.1166 152.973 30.5617 153.074 29V23.1538C153.055 22.0391 153.187 20.9268 153.469 19.8462C153.734 19.0386 154.261 18.3367 154.971 17.8462C155.853 17.3377 156.871 17.0967 157.895 17.1538C159.555 17.1538 160.74 17.5385 161.451 18.3846C162.269 19.5019 162.661 20.8624 162.558 22.2308V22.8462H160.187V22.3077C160.19 21.6635 160.137 21.0201 160.029 20.3846C159.962 19.983 159.735 19.6235 159.396 19.3846C158.952 19.1008 158.425 18.9658 157.895 19C157.328 18.9647 156.767 19.1284 156.314 19.4615C156.128 19.614 155.976 19.8018 155.868 20.0134C155.759 20.2251 155.696 20.4561 155.682 20.6923C155.578 21.38 155.525 22.0741 155.524 22.7692V29.3077C155.466 30.3038 155.627 31.3006 155.998 32.2308C156.314 32.8462 156.947 33.0769 157.895 33.0769C158.269 33.1223 158.649 33.0589 158.987 32.8947C159.324 32.7304 159.604 32.4727 159.792 32.1538C160.209 31.1811 160.398 30.1299 160.345 29.0769V27.8462H158.053V26.0769H162.637V34.7692H161.056L160.819 32.7692C160.612 33.4395 160.18 34.0231 159.593 34.4273C159.006 34.8315 158.297 35.0331 157.579 35C156.926 35.0374 156.273 34.9164 155.68 34.6479C155.087 34.3794 154.572 33.9717 154.181 33.4615Z" fill="#111111"/>
<path d="M167.695 28.6154L163.822 17.3077H166.193L168.959 25.7692L171.646 17.3077H174.017L170.145 28.6154V34.7692H167.774V28.6154H167.695Z" fill="#111111"/>
<path d="M29.07 27.72V25.46C35.7536 24.5423 42.4937 24.0979 49.24 24.13C49.24 24.73 49.24 25.34 49.18 25.95C51.0976 25.099 53.1128 24.4877 55.18 24.13C53.8625 20.722 51.4618 17.8412 48.3471 15.9309C45.2324 14.0205 41.5764 13.1864 37.9414 13.5568C34.3064 13.9273 30.8938 15.4817 28.2285 17.9811C25.5633 20.4804 23.793 23.7863 23.19 27.39L29.07 27.72Z" fill="#FDC305"/>
<path d="M50.24 31.23C49.08 32.51 48.85 32.43 48.85 34.68C48.85 35.59 48.85 39.58 48.85 43.86C51.1425 42.346 53.0245 40.2879 54.328 37.8694C55.6315 35.4509 56.3158 32.7474 56.32 30C56.3068 28.9591 56.1997 27.9216 56 26.9C53.9282 28.1295 51.9967 29.5814 50.24 31.23Z" fill="#FDC305"/>
<path d="M29.36 32.72C29.36 32.72 25.57 31.28 24.17 30.89C23.7871 30.7693 23.3961 30.6757 23 30.61C23.1084 33.496 23.9656 36.3041 25.4874 38.7586C27.0092 41.2131 29.1433 43.2296 31.68 44.61L29.36 32.72Z" fill="#FDC305"/>
<path d="M49.29 24.12C49.3307 18.5986 48.862 13.0853 47.89 7.65C47.89 7.65 47.75 6.36 47 7.41C46.4109 8.65814 46.0067 9.98539 45.8 11.35C41.5418 11.0758 37.2675 11.1896 33.03 11.69C32.24 9 30.85 7.75 30.18 8C29.51 8.25 29.46 11.31 29.46 11.31L29.13 25.41C35.8113 24.506 42.548 24.0749 49.29 24.12Z" fill="#F06351"/>
<path d="M35.41 21C35.41 20.91 36.41 21.68 36.82 21.92C37.23 22.16 37.43 22.34 37.43 22.51C37.43 22.68 37.16 22.85 36.8 22.85C36.44 22.85 35.89 22.73 35.8 22.58H36.74H37.03C36.4207 22.1294 35.8757 21.5978 35.41 21Z" fill="black"/>
<path d="M42.89 21.11L41.8 22.44C41.8 22.5 41.63 22.79 41.98 22.74C42.3942 22.6783 42.8023 22.5812 43.2 22.45C43.31 22.45 43.27 22.26 43.09 22.28C42.91 22.3 42.4 22.33 42.09 22.39L42.93 21.13C42.93 21.13 43 21 42.89 21.11Z" fill="black"/>
<path d="M39.75 27.2C40.2135 26.9958 40.5967 26.6443 40.84 26.2C41.12 25.55 40.84 25.29 40.4 25.2C39.7979 25.0902 39.1765 25.2116 38.66 25.54C38.27 25.9 38.32 26.26 38.61 26.54C38.9613 26.8062 39.3442 27.0279 39.75 27.2Z" fill="black"/>
<path d="M39.35 28.45C39.2379 28.6785 39.0816 28.8825 38.89 29.05C38.6052 29.2791 38.2551 29.4122 37.89 29.43C37.3638 29.472 36.8406 29.3189 36.42 29C36.2222 28.8808 36.0436 28.7324 35.89 28.56C35.7895 28.4491 35.6669 28.3605 35.53 28.3C35.53 28.3 36.28 32.4 38.1 33.05C39.92 33.7 40.24 32.3 40.3 31.92C40.3601 30.7851 40.0742 29.6588 39.48 28.69C39.46 28.38 39.45 28.58 39.35 28.45Z" fill="#F06351"/>
<path d="M37.71 29.59C37.2453 29.5247 36.7989 29.3651 36.3982 29.1209C35.9975 28.8767 35.651 28.5531 35.38 28.17C35.3667 28.157 35.3561 28.1414 35.3489 28.1242C35.3417 28.1071 35.338 28.0886 35.338 28.07C35.338 28.0514 35.3417 28.0329 35.3489 28.0158C35.3561 27.9986 35.3667 27.983 35.38 27.97C35.393 27.9567 35.4086 27.9461 35.4258 27.9389C35.4429 27.9317 35.4614 27.928 35.48 27.928C35.4986 27.928 35.5171 27.9317 35.5342 27.9389C35.5514 27.9461 35.567 27.9567 35.58 27.97C36.0848 28.6642 36.843 29.1313 37.69 29.27C38.0217 29.245 38.3426 29.1413 38.6261 28.9674C38.9096 28.7934 39.1475 28.5544 39.32 28.27L39.46 28.08L39.56 28.29C39.56 28.29 39.93 29.05 40.56 29.09C41.19 29.13 41.61 28.68 42.17 27.81C42.183 27.7967 42.1986 27.7861 42.2158 27.7789C42.2329 27.7717 42.2514 27.768 42.27 27.768C42.2886 27.768 42.3071 27.7717 42.3242 27.7789C42.3414 27.7861 42.357 27.7967 42.37 27.81C42.4023 27.8306 42.4255 27.8629 42.4348 27.9C42.4441 27.9372 42.4388 27.9766 42.42 28.01C41.78 29.01 41.15 29.45 40.54 29.41C40.308 29.3763 40.0867 29.2904 39.8927 29.1587C39.6987 29.0271 39.5371 28.8531 39.42 28.65C39.2233 28.9245 38.9676 29.1514 38.6717 29.3141C38.3758 29.4767 38.0471 29.571 37.71 29.59Z" fill="black"/>
<path d="M49.24 25.92C47.4445 27.5437 45.7512 29.277 44.17 31.11C42.5986 32.9361 40.8238 34.5768 38.88 36C38.66 35.47 37.26 34.49 37.26 34.49C37.26 34.49 34.13 32.35 32.08 30.67C30.9742 29.7373 29.9287 28.7353 28.95 27.67L26.95 27.56C29.8402 31.7655 34.0702 34.8676 38.95 36.36C39.81 36.22 42.22 34.5 44.02 33.1C46.1389 31.2819 48.124 29.3134 49.96 27.21C50.4625 26.621 50.8493 25.9425 51.1 25.21C50 25.6 49.24 25.92 49.24 25.92Z" fill="#F06351"/>
</svg>
